{"title":"Wont.Back.Down.2012.480p.BRRip.XviD.AC3-PTpOWeR","uid":8407937,"size":1879602594,"categoryP":"video","categoryS":"hd___movies","magnet":"?xt=urn:btih:8d8a9bd82120ea6fc3cb3afb52a088e3e8838301&amp;dn=Wont.Back.Down.2012.480p.BRRip.XviD.AC3-PTpOWeR&amp;tr=udp%3A%2F%2Ftracker.openbittorrent.com%3A80&amp;tr=udp%3A%2F%2Fopen.demonii.com%3A1337&amp;tr=udp%3A%2F%2Ftracker.coppersurfer.tk%3A6969&amp;tr=udp%3A%2F%2Fexodus.desync.com%3A6969","seeders":1,"leechers":0,"uploader":"R0thschild","files":4,"time":1366844242,"description":"--------------------------------------------\n &lt;a href=&quot;\nhttp://www.imdb.com/title/tt1870529/&quot; rel=&quot;nofollow&quot; target=&quot;_NEW&quot;&gt;\nhttp://www.imdb.com/title/tt1870529/&lt;/a&gt;\n\n121 min  -  Drama  -  28 September 2012 (USA)\n5,7 Your rating:    -/10   Ratings: 5,7/10 from 2 044 users   Metascore: 42/100\n\nSUBTiTLES.......: Bulgarian\n\nLanguage : English\n\nFormat                           : AVI\nFormat/Info                      : Audio Video Interleave\nFile size                        : 1.75 GiB\nDuration                         : 2h 1mn\nOverall bit rate                 : 2 069 Kbps\nWriting application              : VirtualDubMod 1.5.10.2 (build 2540/release)\nWriting library                  : VirtualDubMod build 2540/release\n\nVideo\nID                               : 0\nFormat                           : MPEG-4 Visual\nFormat profile                   : Advanced Simple@L5\nFormat settings, BVOP            : 2\nFormat settings, QPel            : No\nFormat settings, GMC             : No warppoints\nFormat settings, Matrix          : Default (H.263)\nMuxing mode                      : Packed bitstream\nCodec ID                         : XVID\nCodec ID/Hint                    : XviD\nDuration                         : 2h 1mn\nBit rate                         : 1 611 Kbps\nWidth                            : 720 pixels\nHeight                           : 304 pixels\nDisplay aspect ratio             : 2.35:1\nFrame rate                       : 23.976 fps\nColor space                      : YUV\nChroma subsampling               : 4:2:0\nBit depth                        : 8 bits\nScan type                        : Progressive\nCompression mode                 : Lossy\nBits/(Pixel*Frame)               : 0.307\nStream size                      : 1.36 GiB (78%)\nWriting library                  : XviD 63\n\nAudio\nID                               : 1\nFormat                           : AC-3\nFormat/Info                      : Audio Coding 3\nMode extension                   : CM (complete main)\nCodec ID                         : 2000\nDuration                         : 2h 1mn\nBit rate mode                    : Constant\nBit rate                         : 448 Kbps\nChannel(s)                       : 6 channels\nChannel positions                : Front: L C R, Side: L R, LFE\nSampling rate                    : 48.0 KHz\nBit depth                        : 16 bits\nCompression mode                 : Lossy\nStream size                      : 388 MiB (22%)\nAlignment                        : Split accross interleaves\nInterleave, duration             : 42 ms (1.00 video frame)\nInterleave, preload duration     : 500 ms\n\n--------------------------------------------\n\nMore at   &lt;a href=&quot;\nhttp://publichash.com/&quot; rel=&quot;nofollow&quot; target=&quot;_NEW&quot;&gt;\nhttp://publichash.com/&lt;/a&gt;\n\n--------------------------------------------","torrent":{"xt":"urn:btih:8d8a9bd82120ea6fc3cb3afb52a088e3e8838301","amp;dn":"Wont.Back.Down.2012.480p.BRRip.XviD.AC3-PTpOWeR","amp;tr":["udp%3A%2F%2Ftracker.openbittorrent.com%3A80","udp%3A%2F%2Fopen.demonii.com%3A1337","udp%3A%2F%2Ftracker.coppersurfer.tk%3A6969","udp%3A%2F%2Fexodus.desync.com%3A6969"],"infoHash":"8d8a9bd82120ea6fc3cb3afb52a088e3e8838301","infoHashBuffer":{"type":"Buffer","data":[141,138,155,216,33,32,234,111,195,203,58,251,82,160,136,227,232,131,131,1]},"announce":[],"urlList":[]}}